# xmcd
#
# Track frame offsets: 
#        150
#        13032
#        21925
#        31732
#        43350
#        56197
#        63522
#        73967
#        85887
#        94860
#        102462
#        114115
#
# Disc length: 1682 seconds
#
# Revision: 2
# Processed by: cddbd v1.5.2PL0 Copyright (c) Steve Scherf et al.
# Submitted via: ExactAudioCopy v0.95b3
#
DISCID=a506900c
DTITLE=Ralph Stanley and The Clinch Mountain Boys - Cry From The Cross
DYEAR=2001
DGENRE=Bluegrass
TTITLE0=Cry From The Cross
TTITLE1=You're Drifting On
TTITLE2=Will He Wait A Little Longer
TTITLE3=Bright Morning Star
TTITLE4=Death Is Only A Dream
TTITLE5=Come On Little Children
TTITLE6=Take Your Shoes Off Moses
TTITLE7=Stairway To Heaven
TTITLE8=I Am The Man, Thomas
TTITLE9=Step Out In The Sunshine
TTITLE10=Sinner Man
TTITLE11=Two Coats
EXTD=
EXTT0=
EXTT1=
EXTT2=
EXTT3=
EXTT4=
EXTT5=
EXTT6=
EXTT7=
EXTT8=
EXTT9=
EXTT10=
EXTT11=
PLAYORDER=
